<svg version="1.1" id="Layer_1" xmlns="http://www.w3.org/2000/svg" xmlns:xlink="http://www.w3.org/1999/xlink" x="0px" y="0px"
	 width="100%" viewBox="0 0 259 259" enable-background="new 0 0 259 259" xml:space="preserve">
<path fill="#010101" opacity="1.000000" stroke="none" 
	d="
M260.000000,120.000000 
	C260.000000,167.000000 260.000000,213.500000 260.000000,260.000000 
	C173.666672,260.000000 87.333336,260.000000 1.000000,260.000000 
	C1.000000,173.666672 1.000000,87.333336 1.000000,1.000000 
	C87.333336,1.000000 173.666672,1.000000 260.000000,1.000000 
	C260.000000,40.500000 260.000000,80.000000 260.000000,120.000000 
M73.164040,127.499939 
	C73.164040,148.484634 73.158615,169.469345 73.167191,190.454041 
	C73.169952,197.202759 74.152939,198.167404 81.032509,198.168198 
	C126.832588,198.173553 172.632675,198.173141 218.432755,198.168793 
	C225.828094,198.168091 226.509323,197.500809 226.509827,190.290115 
	C226.513199,141.492203 226.511566,92.694298 226.511551,43.896389 
	C226.511551,42.155521 226.511566,40.414650 226.511566,38.405342 
	C215.895752,38.405342 206.111099,38.405342 195.755615,38.405342 
	C195.755615,27.255970 195.755615,16.367674 195.755615,5.164044 
	C193.709961,5.164044 192.237473,5.164044 190.764984,5.164044 
	C154.124924,5.164044 117.484856,5.160893 80.844788,5.166941 
	C74.234558,5.168032 73.167625,6.269239 73.166649,13.082270 
	C73.161217,50.888157 73.164040,88.694046 73.164040,127.499939 
M69.178978,143.500076 
	C69.178978,104.082275 69.178978,64.664482 69.178978,24.991402 
	C65.454308,24.991402 62.311668,24.987036 59.169041,24.992300 
	C52.367516,25.003696 51.481216,25.884390 51.480392,32.844223 
	C51.473377,92.004066 51.472698,151.163910 51.481434,210.323761 
	C51.482433,217.098557 52.434601,218.006744 59.337017,218.007156 
	C105.165070,218.009888 150.993118,218.008698 196.821167,218.007980 
	C197.987625,218.007965 199.412231,218.423172 200.265686,217.903885 
	C201.937973,216.886383 204.326233,215.513641 204.573929,213.988434 
	C205.192108,210.182098 204.777664,206.208069 204.777664,202.156021 
	C202.175537,202.156021 200.346237,202.156006 198.516922,202.156006 
	C159.021469,202.156006 119.526024,202.159256 80.030579,202.153351 
	C71.858856,202.152130 69.189308,199.531067 69.182739,191.494675 
	C69.169930,175.829819 69.178978,160.164948 69.178978,143.500076 
M47.530205,168.500244 
	C47.530205,127.582428 47.530205,86.664604 47.530205,45.469776 
	C44.463902,45.469776 42.146564,45.468163 39.829224,45.470066 
	C31.432348,45.476971 30.817553,46.097477 30.817350,54.626274 
	C30.815977,112.956398 30.815889,171.286530 30.817444,229.616653 
	C30.817673,238.155258 31.204742,238.530029 39.920074,238.530090 
	C83.084373,238.530350 126.248680,238.549820 169.412964,238.520126 
	C185.632599,238.508957 184.315262,240.552673 184.095139,222.837097 
	C184.093536,222.707611 183.936249,222.580048 183.546478,221.988129 
	C182.070862,221.988129 180.283539,221.988144 178.496216,221.988144 
	C138.165100,221.988144 97.833977,221.993103 57.502861,221.983459 
	C50.408062,221.981766 47.564701,219.165161 47.542969,211.997894 
	C47.500023,197.832138 47.530212,183.666168 47.530205,168.500244 
M207.721085,3.000597 
	C205.630219,3.000597 203.539352,3.000597 201.694168,3.000597 
	C210.822586,12.128485 219.854294,21.159660 228.998749,30.303589 
	C228.998749,23.421375 228.981766,16.341309 229.005051,9.261372 
	C229.019180,4.965209 226.885086,2.953456 222.629395,2.991338 
	C217.975586,3.032764 213.321121,3.000656 207.721085,3.000597 
M205.329407,11.172167 
	C203.665100,9.690969 202.000809,8.209770 200.363556,6.752636 
	C200.363556,15.831477 200.363556,24.962946 200.363556,33.916481 
	C209.275024,33.916481 217.818573,33.916481 227.106613,33.916481 
	C219.692627,26.165751 212.761261,18.919561 205.329407,11.172167 
z"/>
<path fill="#FCFCFC" opacity="1.000000" stroke="none" 
	d="
M73.164040,126.999939 
	C73.164040,88.694046 73.161217,50.888157 73.166649,13.082270 
	C73.167625,6.269239 74.234558,5.168032 80.844788,5.166941 
	C117.484856,5.160893 154.124924,5.164044 190.764984,5.164044 
	C192.237473,5.164044 193.709961,5.164044 195.755615,5.164044 
	C195.755615,16.367674 195.755615,27.255970 195.755615,38.405342 
	C206.111099,38.405342 215.895752,38.405342 226.511566,38.405342 
	C226.511566,40.414650 226.511551,42.155521 226.511551,43.896389 
	C226.511566,92.694298 226.513199,141.492203 226.509827,190.290115 
	C226.509323,197.500809 225.828094,198.168091 218.432755,198.168793 
	C172.632675,198.173141 126.832588,198.173553 81.032509,198.168198 
	C74.152939,198.167404 73.169952,197.202759 73.167191,190.454041 
	C73.158615,169.469345 73.164040,148.484634 73.164040,126.999939 
M174.056915,130.485077 
	C171.284348,117.860481 162.867172,109.906960 150.359344,108.322189 
	C141.103363,107.149445 127.480370,111.563728 121.250732,127.710938 
	C134.263000,121.020439 146.294968,120.617012 155.395416,132.913849 
	C162.387421,142.361679 160.035355,151.926254 152.851395,160.817657 
	C165.821487,160.286835 175.898254,145.982788 174.056915,130.485077 
M140.500122,94.310890 
	C125.859947,94.310890 111.219772,94.305550 96.579613,94.319931 
	C95.255096,94.321228 93.858139,94.219826 92.634087,94.606720 
	C91.925270,94.830757 91.039650,95.954926 91.068413,96.638893 
	C91.096687,97.311012 92.075317,98.264748 92.826752,98.507668 
	C93.888794,98.850990 95.125275,98.684586 96.287201,98.684761 
	C131.057617,98.690109 165.828049,98.689140 200.598465,98.688927 
	C201.430283,98.688927 202.383087,98.945572 203.066788,98.626633 
	C204.213898,98.091507 205.189651,97.189041 206.237503,96.441139 
	C205.121353,95.732422 204.082947,94.787788 202.865463,94.386597 
	C201.814560,94.040298 200.559937,94.311050 199.395386,94.311043 
	C180.096970,94.310814 160.798553,94.310913 140.500122,94.310890 
M117.095253,148.006348 
	C117.428177,149.290298 117.659248,150.611267 118.110260,151.852295 
	C121.455963,161.058533 131.697510,166.221939 141.115280,163.491455 
	C150.860367,160.666061 156.640289,150.807129 154.310684,140.983719 
	C152.138214,131.822922 143.436356,125.366127 134.542816,126.315895 
	C123.477264,127.497620 116.930252,135.284073 117.095253,148.006348 
M147.499908,65.201973 
	C166.932434,65.201973 186.364960,65.201973 205.797470,65.201973 
	C206.044281,64.601257 206.291077,64.000542 206.537872,63.399826 
	C205.149826,62.644375 203.774872,61.264015 202.371597,61.234585 
	C193.055527,61.039173 183.733398,61.133018 174.413239,61.132996 
	C148.283524,61.132935 122.153763,61.115395 96.024132,61.164490 
	C93.799736,61.168671 90.533089,60.143433 91.270660,65.201973 
	C109.651718,65.201973 128.075790,65.201973 147.499908,65.201973 
M124.500069,77.838226 
	C119.841988,77.838226 115.183899,77.837639 110.525818,77.838379 
	C105.035942,77.839256 99.543022,77.747902 94.058899,77.926285 
	C93.035271,77.959587 92.046906,79.076950 91.042267,79.694023 
	C92.066162,80.460739 93.013016,81.386276 94.142952,81.934387 
	C94.816513,82.261108 95.777542,81.995659 96.609344,81.995659 
	C131.378601,81.995735 166.147842,81.996429 200.917099,81.992592 
	C202.079651,81.992470 203.325943,82.193024 204.375839,81.836548 
	C205.097778,81.591415 205.975189,80.553528 205.991272,79.851822 
	C206.005707,79.221786 205.037415,78.189903 204.328705,78.006187 
	C203.076172,77.681473 201.691483,77.842102 200.362106,77.841843 
	C175.408096,77.836922 150.454086,77.838226 124.500069,77.838226 
M140.329880,172.095444 
	C138.047058,177.318024 139.122025,181.358673 143.219040,182.955414 
	C147.261658,184.530930 152.097046,182.457932 152.496185,178.269699 
	C152.724365,175.875458 151.587814,172.594330 149.876999,170.947235 
	C147.224747,168.393768 143.739822,169.097870 140.329880,172.095444 
z"/>
<path fill="#F9F9F9" opacity="1.000000" stroke="none" 
	d="
M69.178978,144.000092 
	C69.178978,160.164948 69.169930,175.829819 69.182739,191.494675 
	C69.189308,199.531067 71.858856,202.152130 80.030579,202.153351 
	C119.526024,202.159256 159.021469,202.156006 198.516922,202.156006 
	C200.346237,202.156006 202.175537,202.156021 204.777664,202.156021 
	C204.777664,206.208069 205.192108,210.182098 204.573929,213.988434 
	C204.326233,215.513641 201.937973,216.886383 200.265686,217.903885 
	C199.412231,218.423172 197.987625,218.007965 196.821167,218.007980 
	C150.993118,218.008698 105.165070,218.009888 59.337017,218.007156 
	C52.434601,218.006744 51.482433,217.098557 51.481434,210.323761 
	C51.472698,151.163910 51.473377,92.004066 51.480392,32.844223 
	C51.481216,25.884390 52.367516,25.003696 59.169041,24.992300 
	C62.311668,24.987036 65.454308,24.991402 69.178978,24.991402 
	C69.178978,64.664482 69.178978,104.082275 69.178978,144.000092 
z"/>
<path fill="#F7F7F7" opacity="1.000000" stroke="none" 
	d="
M47.530182,169.000259 
	C47.530212,183.666168 47.500023,197.832138 47.542969,211.997894 
	C47.564701,219.165161 50.408062,221.981766 57.502861,221.983459 
	C97.833977,221.993103 138.165100,221.988144 178.496216,221.988144 
	C180.283539,221.988144 182.070862,221.988129 183.546478,221.988129 
	C183.936249,222.580048 184.093536,222.707611 184.095139,222.837097 
	C184.315262,240.552673 185.632599,238.508957 169.412964,238.520126 
	C126.248680,238.549820 83.084373,238.530350 39.920074,238.530090 
	C31.204742,238.530029 30.817673,238.155258 30.817444,229.616653 
	C30.815889,171.286530 30.815977,112.956398 30.817350,54.626274 
	C30.817553,46.097477 31.432348,45.476971 39.829224,45.470066 
	C42.146564,45.468163 44.463902,45.469776 47.530205,45.469776 
	C47.530205,86.664604 47.530205,127.582428 47.530182,169.000259 
z"/>
<path fill="#FEFEFE" opacity="1.000000" stroke="none" 
	d="
M208.194000,3.000597 
	C213.321121,3.000656 217.975586,3.032764 222.629395,2.991338 
	C226.885086,2.953456 229.019180,4.965209 229.005051,9.261372 
	C228.981766,16.341309 228.998749,23.421375 228.998749,30.303589 
	C219.854294,21.159660 210.822586,12.128485 201.694168,3.000597 
	C203.539352,3.000597 205.630219,3.000597 208.194000,3.000597 
z"/>
<path fill="#FCFCFC" opacity="1.000000" stroke="none" 
	d="
M205.579651,11.422770 
	C212.761261,18.919561 219.692627,26.165751 227.106613,33.916481 
	C217.818573,33.916481 209.275024,33.916481 200.363556,33.916481 
	C200.363556,24.962946 200.363556,15.831477 200.363556,6.752636 
	C202.000809,8.209770 203.665100,9.690969 205.579651,11.422770 
z"/>
<path fill="#0E0E0E" opacity="1.000000" stroke="none" 
	d="
M174.107376,130.894440 
	C175.898254,145.982788 165.821487,160.286835 152.851395,160.817657 
	C160.035355,151.926254 162.387421,142.361679 155.395416,132.913849 
	C146.294968,120.617012 134.263000,121.020439 121.250732,127.710938 
	C127.480370,111.563728 141.103363,107.149445 150.359344,108.322189 
	C162.867172,109.906960 171.284348,117.860481 174.107376,130.894440 
M140.348022,113.539352 
	C137.605469,115.048462 134.862900,116.557571 132.120346,118.066681 
	C141.752808,118.211685 149.837738,120.572762 156.311737,127.195892 
	C162.701385,133.732727 164.442123,141.858063 163.475632,150.899414 
	C164.952332,149.620895 166.110489,148.433151 166.906754,147.038742 
	C171.610611,138.801559 171.772842,130.416000 166.406204,122.564224 
	C160.308517,113.642868 151.592712,110.741631 140.348022,113.539352 
z"/>
<path fill="#333333" opacity="1.000000" stroke="none" 
	d="
M141.000122,94.310913 
	C160.798553,94.310913 180.096970,94.310814 199.395386,94.311043 
	C200.559937,94.311050 201.814560,94.040298 202.865463,94.386597 
	C204.082947,94.787788 205.121353,95.732422 206.237503,96.441139 
	C205.189651,97.189041 204.213898,98.091507 203.066788,98.626633 
	C202.383087,98.945572 201.430283,98.688927 200.598465,98.688927 
	C165.828049,98.689140 131.057617,98.690109 96.287201,98.684761 
	C95.125275,98.684586 93.888794,98.850990 92.826752,98.507668 
	C92.075317,98.264748 91.096687,97.311012 91.068413,96.638893 
	C91.039650,95.954926 91.925270,94.830757 92.634087,94.606720 
	C93.858139,94.219826 95.255096,94.321228 96.579613,94.319931 
	C111.219772,94.305550 125.859947,94.310890 141.000122,94.310913 
z"/>
<path fill="#0D1010" opacity="1.000000" stroke="none" 
	d="
M117.058838,147.579758 
	C116.930252,135.284073 123.477264,127.497620 134.542816,126.315895 
	C143.436356,125.366127 152.138214,131.822922 154.310684,140.983719 
	C156.640289,150.807129 150.860367,160.666061 141.115280,163.491455 
	C131.697510,166.221939 121.455963,161.058533 118.110260,151.852295 
	C117.659248,150.611267 117.428177,149.290298 117.058838,147.579758 
M149.538300,150.765305 
	C152.833771,143.645401 148.523209,135.717194 143.828217,132.835770 
	C138.537094,129.588501 131.211411,129.874359 126.616272,133.916245 
	C122.011353,137.966721 119.990265,142.979187 121.775681,149.102875 
	C123.590439,155.327255 127.845268,159.063126 134.170990,159.827103 
	C140.994553,160.651245 146.044693,157.583038 149.538300,150.765305 
z"/>
<path fill="#101010" opacity="1.000000" stroke="none" 
	d="
M146.999893,65.201973 
	C128.075790,65.201973 109.651718,65.201973 91.270660,65.201973 
	C90.533089,60.143433 93.799736,61.168671 96.024132,61.164490 
	C122.153763,61.115395 148.283524,61.132935 174.413239,61.132996 
	C183.733398,61.133018 193.055527,61.039173 202.371597,61.234585 
	C203.774872,61.264015 205.149826,62.644375 206.537872,63.399826 
	C206.291077,64.000542 206.044281,64.601257 205.797470,65.201973 
	C186.364960,65.201973 166.932434,65.201973 146.999893,65.201973 
z"/>
<path fill="#010101" opacity="1.000000" stroke="none" 
	d="
M125.000076,77.838226 
	C150.454086,77.838226 175.408096,77.836922 200.362106,77.841843 
	C201.691483,77.842102 203.076172,77.681473 204.328705,78.006187 
	C205.037415,78.189903 206.005707,79.221786 205.991272,79.851822 
	C205.975189,80.553528 205.097778,81.591415 204.375839,81.836548 
	C203.325943,82.193024 202.079651,81.992470 200.917099,81.992592 
	C166.147842,81.996429 131.378601,81.995735 96.609344,81.995659 
	C95.777542,81.995659 94.816513,82.261108 94.142952,81.934387 
	C93.013016,81.386276 92.066162,80.460739 91.042267,79.694023 
	C92.046906,79.076950 93.035271,77.959587 94.058899,77.926285 
	C99.543022,77.747902 105.035942,77.839256 110.525818,77.838379 
	C115.183899,77.837639 119.841988,77.838226 125.000076,77.838226 
z"/>
<path fill="#0B0B0B" opacity="1.000000" stroke="none" 
	d="
M140.598572,171.821259 
	C143.739822,169.097870 147.224747,168.393768 149.876999,170.947235 
	C151.587814,172.594330 152.724365,175.875458 152.496185,178.269699 
	C152.097046,182.457932 147.261658,184.530930 143.219040,182.955414 
	C139.122025,181.358673 138.047058,177.318024 140.598572,171.821259 
z"/>
<path fill="#F5F5F5" opacity="1.000000" stroke="none" 
	d="
M140.717590,113.387497 
	C151.592712,110.741631 160.308517,113.642868 166.406204,122.564224 
	C171.772842,130.416000 171.610611,138.801559 166.906754,147.038742 
	C166.110489,148.433151 164.952332,149.620895 163.475632,150.899414 
	C164.442123,141.858063 162.701385,133.732727 156.311737,127.195892 
	C149.837738,120.572762 141.752808,118.211685 132.120346,118.066681 
	C134.862900,116.557571 137.605469,115.048462 140.717590,113.387497 
z"/>
<path fill="#6BC6C7" opacity="1.000000" stroke="none" 
	d="
M149.355469,151.100342 
	C146.044693,157.583038 140.994553,160.651245 134.170990,159.827103 
	C127.845268,159.063126 123.590439,155.327255 121.775681,149.102875 
	C119.990265,142.979187 122.011353,137.966721 126.616272,133.916245 
	C131.211411,129.874359 138.537094,129.588501 143.828217,132.835770 
	C148.523209,135.717194 152.833771,143.645401 149.355469,151.100342 
z"/>
</svg>